<?xml version="1.0" encoding="utf-8"?>
<!-- Generator: Adobe Illustrator 24.1.1, SVG Export Plug-In . SVG Version: 6.00 Build 0)  -->
<svg version="1.1" id="Layer_1" xmlns="http://www.w3.org/2000/svg" xmlns:xlink="http://www.w3.org/1999/xlink" x="0px" y="0px"
	 viewBox="0 0 1000 1000" style="enable-background:new 0 0 1000 1000;" xml:space="preserve">
<path d="M570.6,449.4l-4.9-14.7l-6.5-11.4l-6.5-8.2l-13-9.8l-14.7-6.5l-14.7-4.9l-14.7-1.6h-6l-0.5-16.3H501
	c17.6,0,28.7,4.3,33.3,13v-13c0-22.2-11.1-33.3-33.3-33.3H348.6c-17.6,0-28.6-4.5-32.9-13.4v13.4c0,22.2,11,33.3,32.9,33.3h59.7
	h33.3h33.6l0.9,14.6l-9.8,4.9l-22.8,11.4l-21.3,11.5l-16.3,9.8l-16.3,11.4l-14.7,13l-6.5,8.2l-3.3,8.2l-1.6,6.5v6.5v8.2l3.3,6.5
	l11.4,13l14.7,13l19.6,14.7l35.9,24.5l40.8,27.7l0.2-2.4l1.4,0.8V431.5l11.4-1.6h9.8h9.8l9.8,1.6l6.5,3.3l9.8,6.5l8.2,11.4l3.3,11.4
	v9.8l-3.3,9.8l-1.6-3.3l-4.9-3.3l-8.2-6.5l-8.2-1.6h-9.8l-9.8,1.6l-8.2,6.5l-4.9,8.2l-1.6,6.5v9.8l3.3,6.5l4.9,8.2l8.2,8.2l13,3.3
	l11.4-1.6l9.8-6.5l6.5-6.5l6.5-8.2l4.9-9.8l3.3-8.2l1.6-13v-9.8L570.6,449.4z M476,464.1v76.6l-0.3,25.2l-1.4-0.7l-17.9-11.4
	l-37.5-31l-13-11.4l-6.5-8.2l-1.6-4.9l1.6-6.5l6.5-9.8l21.2-17.9l21.2-11.4l26.1-14.7l1.6-0.7L476,464.1L476,464.1z"/>
</svg>
