<?xml version="1.0" encoding="utf-8"?>
<!-- Generator: Adobe Illustrator 24.1.1, SVG Export Plug-In . SVG Version: 6.00 Build 0)  -->
<svg version="1.1" id="Layer_1" xmlns="http://www.w3.org/2000/svg" xmlns:xlink="http://www.w3.org/1999/xlink" x="0px" y="0px"
	 viewBox="0 0 1000 1000" style="enable-background:new 0 0 1000 1000;" xml:space="preserve">
<g>
	<path d="M520.4,458.3l0.3,0.2c-0.2-0.2-0.4-0.4-0.6-0.5L520.4,458.3z"/>
	<polygon points="517.8,458.5 517.8,458.4 517.8,458.6 	"/>
	<polygon points="542.9,482.7 540.2,482.7 542.5,482.8 	"/>
	<path d="M392,440l9.1-2.8l17.4-5.1l21.8-0.8l22.6,4.1l15.1,2.7l14.5,3.7l-9.2-4.5l-8.4-6.2l-12.4-8.1l-13.7-5.4l-17.3-4.9
		l-16.9-2.5l-12.9-0.5l-21.1-0.7l-0.6,0.1l-31.4,5.6l-5,1.1l-1.3,0.1l-0.6,0.1c-14.1,2.5-25,0.7-32.6-5.3l-0.6-0.3l-0.7-0.8
		c-1.8-1.7-3.4-3.6-4.8-5.8l-0.7-0.9l1.5,8.4l0.1,0.4v0.2l2,10.6c0.7,3.6,1.5,6.9,2.3,10l0.7,2.5c3.5,11.4,8.6,19.7,15.2,24.8
		l4.5,2.8c5.9,3.1,12.9,4,20.9,2.8l1.4-0.4l3.1-0.4l4.6-0.8l34-22.5C392.5,440.7,392.3,440.3,392,440z"/>
	<path d="M689.9,427.7c-2.5-3.1-5.3-5.4-8.5-7c-3.6-1.8-7.4-2.8-11.3-2.9c-3.9-0.2-7.7,0.3-11.4,1.5s-7,2.8-9.9,4.9
		c-0.6,0.4-1.2,0.9-1.7,1.3l-3.2,2.2l-2.6,1.5c0,0,0,0-2.1,1.4c-0.7,0.5-1.4,1-2.1,1.6c-2-12.2-10-18.4-24.1-18.4l-44.8-0.1l-25-0.1
		l-44.6-0.1c-13.2,0-21.5-3.3-24.9-9.9v9.8c-0.1,16.7,8.2,25,24.9,25l114.3,0.4c7.8,0,13.8,1.2,18.2,3.6c-0.8,2.8-1.1,6-1.1,9.5
		v90.4l-5-4.5l-11.6-10.5c0.2-2.2,0.4-4.3,0.4-6.5c0-13.5-4.5-26-13.6-37.5c-8.6-10.9-20.9-18.9-37-24L446,435.4
		c3.1,9.1,6.3,18.2,9.6,27.2c5.1,13.8,10.9,26.3,17.4,37.7s14.2,20.6,22.9,27.6c7.1,5.7,15.2,9.1,24.3,10.2c2.4,1.1,5.1,1.7,7.9,1.7
		c10.9,0,19.7-8.8,19.7-19.7c0-10.9-8.8-19.7-19.7-19.7c-5.1,0-9.8,2-13.3,5.2c-0.5-1.1-0.9-2.2-1.3-3.4
		c-5.1-14.5-8.9-31.6-11.4-51.2c6.1,1.2,11.7,3,16.9,5.7c0.3,0.4,0.7,0.8,1.1,1.2l-0.8-1c2.4,1.2,4.6,2.6,6.8,4.1l-2.1-0.8l-3.3-1.8
		c1.5,1.2,3.5,2.2,5.8,2.8c2.2,1.5,4.2,3.2,6.2,5.1c8.5,7.9,15,17.4,19.6,28.3s6.9,21.7,6.9,32.3c0,8.3-1.5,16.1-4.6,23.2
		c-3,7.1-7.8,12.8-14.2,17.1s-14.7,6.4-24.7,6.4c-14.1,0-26.5-2.2-37.2-6.4c-10.7-4.3-19.7-9.7-27-16.2s-12.8-13.3-16.5-20.4
		c-0.8-1.6-1.5-3.1-2.2-4.6c10.6-4.9,17.9-15.5,17.9-27.9c0-10.8-5.6-20.4-14.1-25.8c-3-4.5-6.6-7.9-11-10.3
		c-5.2-2.9-10.6-4.4-16.2-4.4s-11,1.5-16.2,4.4s-9.4,7.3-12.7,13.1c-3.3,5.8-4.9,13.1-4.9,21.8c0,14.8,3.9,28.3,11.7,40.6
		c7.8,12.3,18,22.9,30.7,31.7c12.6,8.9,26.5,15.8,41.6,20.7s29.8,7.3,44.3,7.3c18.7,0,35-2.2,48.7-6.6c13.8-4.4,25.2-10.3,34.2-17.6
		c7.5-6.1,13.4-12.8,17.8-20.1l3.7,3.4l11.1,10c4.4,4,7.5,7.7,9.6,11.3c-1.4,7-4.5,11.6-9.1,13.9H630c16.7,0,25.1-8.3,25.1-24.8v-45
		v-25.1v-36.1l0.2-0.7c4.3,6,11.4,9.9,19.3,9.9c13.2,0,23.8-10.7,23.8-23.8C698.3,438.6,695,432.1,689.9,427.7z"/>
</g>
</svg>
