<?xml version="1.0" encoding="utf-8"?>
<!-- Generator: Adobe Illustrator 24.1.1, SVG Export Plug-In . SVG Version: 6.00 Build 0)  -->
<svg version="1.1" id="Layer_1" xmlns="http://www.w3.org/2000/svg" xmlns:xlink="http://www.w3.org/1999/xlink" x="0px" y="0px"
	 viewBox="0 0 1000 1000" style="enable-background:new 0 0 1000 1000;" xml:space="preserve">
<path d="M674.1,304.1l-51.5-4.7l-56.2-7l-39.7-7l-44.4-9.3l-56.2-16.4L386.4,241l-18.7-11.7l-18.7-14l-21-23.4l-9.3,49.2l28,21
	l28,14l37.4,16.4l25.7,4.7l25.7,4.7l16.4,2.3l-35.1,23.4l-116.9,74.9l25.7,39.7l11.7-9.3l16.4-11.7l16.4-2.3l16.4,2.3l9.3,11.7
	l2.3,4.6v0.1l4.4,8.8l-9.1,21.6l35.1,53.8l11.7,2.3l23.4-210.5h9.3l14,7l9.3,14l2.3,16.4l-2.3,14l-11.4,11.6l-11.7,7l-11.7,4.7
	l23.4,37.4l11.7-7l11.7-11.7l9.3-9.3l7-14l4.7-18.7v-16.4l-2.3-14l-7-14l-18.7-11.7l28,2.3h42.1h46.8h44.4l11.7-4.7L674.1,304.1z
	 M443.7,415.2l-1.1-1.1l-4.7-9.3L426.2,393l-9.3-7h-9.3l81.8-79.5h0.1L443.7,415.2z"/>
</svg>
